<svg width="30" height="30" viewBox="0 0 30 30" fill="none" xmlns="http://www.w3.org/2000/svg">
<circle cx="15" cy="15" r="14.5" fill="white" stroke="black"/>
<path fill-rule="evenodd" clip-rule="evenodd" d="M15.9283 12.0722C15.9283 12.4735 16.095 12.8427 16.4098 13.1406C16.8526 13.5589 17.3376 13.616 17.6675 13.5909C18.06 13.5605 18.4549 13.3909 18.7245 13.1368L18.7937 13.0713C18.9918 12.8838 19.1132 12.7689 19.2315 12.6604L20.0445 13.4096L20.6153 12.8673L20.6231 12.8539L19.8221 12.0957L20.3918 11.5562L19.7962 10.9927L19.2264 11.5328C19.2264 11.5328 17.5615 9.95367 17.355 9.75625C17.244 9.64963 17.176 9.53743 17.176 9.35923C17.176 9.17038 17.266 9.04436 17.3427 8.97241C17.454 8.8667 17.618 8.80099 17.7681 8.80099C17.997 8.80099 18.1382 8.91572 18.1865 8.96438L18.1989 8.97611L18.2113 8.96492L18.5497 8.64581L18.7833 8.42482L18.7933 8.41372L18.7774 8.39702C18.6243 8.24879 18.2878 8 17.7661 8C17.3685 8 17.0003 8.15003 16.7304 8.42211C16.4775 8.67623 16.3332 9.01674 16.3332 9.35661C16.3332 9.92108 16.6728 10.268 16.9129 10.4792L16.4063 10.9484C16.1116 11.2269 15.9283 11.6581 15.9283 12.0722ZM17.0038 11.515L17.5069 11.0387L18.6332 12.0941C18.5817 12.1442 18.3636 12.3525 18.1235 12.5777C17.8334 12.8475 17.3531 12.9042 17.0038 12.5744C16.8515 12.4293 16.771 12.2495 16.771 12.053C16.771 11.855 16.8584 11.6533 17.0038 11.515ZM20.6744 15.4304C19.9046 14.7047 18.8805 14.3054 17.7916 14.3054C16.7027 14.3054 15.6785 14.7047 14.9086 15.4304C14.1389 16.1568 13.7148 17.1213 13.7148 18.1476C13.7148 19.174 14.1389 20.138 14.9086 20.8637C15.6785 21.5898 16.7027 21.9892 17.7916 21.9892C18.8805 21.9892 19.9046 21.5898 20.6744 20.8637C21.4445 20.138 21.8687 19.174 21.8687 18.1476C21.8687 17.1213 21.4445 16.1568 20.6744 15.4304ZM17.7916 21.0008C16.9826 21.0008 16.2219 20.7036 15.6502 20.1647C15.0782 19.6259 14.7623 18.9091 14.7623 18.1476C14.7623 17.3846 15.0782 16.6684 15.6502 16.1295C16.2219 15.5896 16.9826 15.293 17.7916 15.293C18.6005 15.293 19.361 15.5896 19.9333 16.1295C20.5046 16.6684 20.8202 17.3846 20.8202 18.1476C20.8202 19.7207 19.4618 21.0008 17.7916 21.0008ZM13.7214 12.6059C13.7214 14.2408 12.7725 15.7318 11.242 16.5025C11.6792 16.7641 12.0472 17.1253 12.3019 17.5502C12.571 17.9956 12.7135 18.5035 12.7135 19.0188C12.7135 19.8144 12.3833 20.5632 11.7855 21.127C11.1889 21.6898 10.3938 22 9.54876 22H7.99937L7.99707 8.19014H9.03657C10.2879 8.19014 11.4648 8.64917 12.3505 9.48412C13.236 10.3182 13.7214 11.4271 13.7214 12.6059ZM11.6085 10.1823C10.9254 9.53893 10.0165 9.18303 9.0513 9.17879V16.0335C10.0165 16.0292 10.9254 15.6732 11.6085 15.0301C12.2963 14.3831 12.6728 13.5219 12.6728 12.6059C12.6728 11.6909 12.2963 10.8303 11.6085 10.1823ZM9.0513 21.0119H9.54761C10.7139 21.0119 11.6628 20.1178 11.6628 19.0188C11.6628 18.4863 11.4433 17.9861 11.0441 17.6088C10.6442 17.233 10.1088 17.0263 9.54321 17.0263C9.54321 17.0263 9.13721 17.0242 9.0513 17.0242V21.0119Z" fill="black"/>
</svg>
