<svg width="30" height="30" viewBox="0 0 30 30" fill="none" xmlns="http://www.w3.org/2000/svg">
<circle cx="15" cy="15" r="14.5" fill="black" stroke="white"/>
<path fill-rule="evenodd" clip-rule="evenodd" d="M21.9387 14.0504L15.1575 7.18832C15.1157 7.14777 15.059 7.125 15 7.125C14.941 7.125 14.8843 7.14777 14.8425 7.18832L8.06125 14.0504C8.02164 14.0904 7.99966 14.1439 8 14.1994V22.4493C8 22.5622 8.0461 22.6705 8.12814 22.7503C8.21019 22.8301 8.32147 22.875 8.4375 22.875H12.8125C12.9285 22.875 13.0398 22.8301 13.1219 22.7503C13.2039 22.6705 13.25 22.5622 13.25 22.4493V17.7667H16.75V22.4493C16.75 22.5622 16.7961 22.6705 16.8781 22.7503C16.9602 22.8301 17.0715 22.875 17.1875 22.875H21.5625C21.6785 22.875 21.7898 22.8301 21.8719 22.7503C21.9539 22.6705 22 22.5622 22 22.4493V14.1994C22.0003 14.1439 21.9784 14.0904 21.9387 14.0504ZM15 8.45162L9 14.5232V21.875H12.25V16.7667H17.75V21.875H21V14.5232L15 8.45162ZM21 14.1933V14.1994C21 14.1974 21 14.1953 21 14.1933Z" fill="white"/>
</svg>
