<svg width="32" height="32" viewBox="0 0 32 32" fill="none" xmlns="http://www.w3.org/2000/svg">
<g id="UI/General/Search">
<path id="&#240;&#159;&#142;&#168;Core Black" fill-rule="evenodd" clip-rule="evenodd" d="M8.79995 12.5C8.79995 9.90427 10.9042 7.80001 13.5 7.80001C16.0957 7.80001 18.2 9.90427 18.2 12.5C18.2 15.0958 16.0957 17.2 13.5 17.2C10.9042 17.2 8.79995 15.0958 8.79995 12.5ZM13.5 6.20001C10.0206 6.20001 7.19995 9.02062 7.19995 12.5C7.19995 15.9794 10.0206 18.8 13.5 18.8C16.9793 18.8 19.8 15.9794 19.8 12.5C19.8 9.02062 16.9793 6.20001 13.5 6.20001ZM19.697 18.4343C19.3846 18.1219 18.8781 18.1219 18.5656 18.4343C18.2532 18.7467 18.2532 19.2533 18.5656 19.5657L23.4343 24.4343C23.7467 24.7467 24.2532 24.7467 24.5656 24.4343C24.8781 24.1219 24.8781 23.6154 24.5656 23.303L19.697 18.4343Z" fill="#191817"/>
</g>
</svg>
